<?xml version="1.0" standalone="no"?>
<!DOCTYPE svg PUBLIC "-//W3C//DTD SVG 20010904//EN"
 "http://www.w3.org/TR/2001/REC-SVG-20010904/DTD/svg10.dtd">
<svg version="1.0" xmlns="http://www.w3.org/2000/svg"
 width="1563.000000pt" height="1563.000000pt" viewBox="0 0 1563.000000 1563.000000"
 preserveAspectRatio="xMidYMid meet">

<g transform="translate(0.000000,1563.000000) scale(0.100000,-0.100000)"
fill="#000000" stroke="none">
<path d="M2968 13512 c-122 -310 -201 -633 -250 -1017 -19 -152 -16 -572 5
-725 64 -462 213 -828 481 -1185 85 -113 362 -386 483 -475 56 -41 100 -76 99
-77 -5 -5 -171 27 -261 51 -196 52 -364 126 -502 222 -35 24 -63 40 -63 35 0
-4 62 -69 138 -142 423 -415 917 -704 1473 -864 183 -53 479 -104 612 -106 45
0 49 -2 27 -10 -73 -29 -289 -53 -487 -53 -112 -1 -203 -2 -203 -3 0 -8 274
-87 387 -112 267 -58 425 -74 713 -74 281 0 407 14 705 80 200 44 217 47 370
47 137 0 171 -3 238 -22 261 -75 449 -253 555 -527 48 -122 64 -186 60 -238
l-3 -47 -67 79 c-242 287 -604 482 -1028 555 -394 68 -989 28 -1349 -90 -286
-94 -542 -265 -607 -406 l-29 -63 -3 -332 c-3 -317 -2 -334 17 -371 24 -46 58
-76 106 -92 100 -33 234 72 435 340 422 564 628 728 935 747 301 19 475 -167
475 -507 0 -109 -17 -159 -68 -202 -39 -33 -81 -47 -268 -92 -447 -107 -845
-283 -1149 -508 -374 -278 -604 -626 -687 -1041 -31 -152 -33 -435 -4 -542 91
-345 380 -612 734 -681 95 -18 301 -18 422 1 247 38 417 122 658 326 187 159
254 181 322 110 29 -31 42 -57 60 -122 27 -102 48 -144 92 -186 70 -68 11 -65
1163 -64 986 1 1045 2 1133 20 239 50 409 195 452 387 16 69 13 205 -5 299
-45 239 -155 461 -491 1001 -414 665 -604 1057 -734 1514 -103 364 -150 709
-150 1092 0 440 74 658 222 658 95 0 168 -83 283 -323 81 -171 153 -362 315
-842 72 -214 259 -759 414 -1210 156 -451 334 -970 395 -1153 129 -386 167
-490 244 -662 115 -260 227 -432 360 -557 120 -112 221 -168 370 -203 78 -19
121 -20 940 -20 l858 0 -34 43 c-80 99 -132 223 -158 377 -17 100 -26 4984 -9
5187 17 215 64 356 160 481 l40 53 -727 -3 -728 -3 -90 -28 c-120 -38 -198
-81 -266 -147 -107 -105 -145 -216 -136 -404 6 -141 33 -250 104 -415 76 -178
119 -254 483 -846 180 -293 250 -417 360 -640 304 -618 440 -1186 440 -1842 0
-422 -77 -643 -224 -643 -120 0 -227 159 -393 583 -30 78 -167 475 -303 882
-756 2253 -860 2555 -1010 2905 -162 381 -289 537 -475 583 -51 13 -205 16
-1028 19 -532 2 -967 2 -967 1 0 -1 24 -35 54 -77 55 -77 94 -168 123 -291 15
-63 17 -176 20 -1085 l3 -1015 -23 70 c-74 225 -227 399 -447 510 -160 80
-282 112 -980 255 -1028 212 -1477 362 -1888 632 -123 81 -273 208 -350 296
-56 65 -69 92 -24 50 34 -31 155 -119 247 -179 282 -184 647 -342 990 -428 75
-19 314 -60 760 -130 275 -44 906 -131 947 -131 17 0 16 3 -2 50 -86 217 -258
481 -408 622 -126 118 -165 141 -412 235 -645 245 -999 412 -1290 606 -154
103 -315 250 -398 362 -24 33 -46 62 -49 65 -11 10 9 -220 26 -306 23 -110 72
-238 112 -294 17 -23 28 -44 26 -46 -3 -3 -49 29 -104 70 -156 118 -285 272
-374 449 -33 66 -78 135 -132 200 -148 179 -302 410 -417 629 -191 363 -330
850 -330 1158 0 38 -4 71 -8 74 -5 3 -29 -48 -54 -112z m3379 -6018 c15 -11
39 -42 53 -69 23 -47 24 -60 33 -335 4 -157 6 -429 4 -605 -3 -286 -6 -328
-25 -396 -72 -264 -233 -385 -474 -357 -201 23 -337 162 -398 408 -31 124 -39
418 -15 561 44 264 148 473 318 636 127 122 272 185 409 180 49 -2 75 -8 95
-23z"/>
</g>
</svg>
